HIERARCHY
ROOT joint_Root
{
	OFFSET 0.0 0.0 0.0
	CHANNELS 6 Xposition Yposition Zposition Zrotation Xrotation Yrotation 
	JOINT Hips
	{
		OFFSET 4.5925 91.4895 -427.239
		CHANNELS 6 Xposition Yposition Zposition Zrotation Xrotation Yrotation 
		JOINT Spine
		{
			OFFSET 15.7357 0.0 0.0
			CHANNELS 6 Xposition Yposition Zposition Zrotation Xrotation Yrotation 
			JOINT Chest
			{
				OFFSET 8.98455 -0.406207 0.0
				CHANNELS 6 Xposition Yposition Zposition Zrotation Xrotation Yrotation 
				JOINT Neck
				{
					OFFSET 16.3773 0.0 0.0
					CHANNELS 6 Xposition Yposition Zposition Zrotation Xrotation Yrotation 
					JOINT Head
					{
						OFFSET 6.45672 0.0 0.0
						CHANNELS 6 Xposition Yposition Zposition Zrotation Xrotation Yrotation 
						End Site
						{
							OFFSET 0.0 0.0 0.0
						}
					}
				}
				JOINT Shoulder_L
				{
					OFFSET 12.9942 -0.242716 4.98039
					CHANNELS 6 Xposition Yposition Zposition Zrotation Xrotation Yrotation 
					JOINT UpperArm_L
					{
						OFFSET 5.34809 0.0 0.0
						CHANNELS 6 Xposition Yposition Zposition Zrotation Xrotation Yrotation 
						JOINT LowerArm_L
						{
							OFFSET 24.3286 1.87007e-05 0.0
							CHANNELS 6 Xposition Yposition Zposition Zrotation Xrotation Yrotation 
							JOINT Hand_L
							{
								OFFSET 22.2916 0.0 0.0
								CHANNELS 6 Xposition Yposition Zposition Zrotation Xrotation Yrotation 
								End Site
								{
									OFFSET 0.0 0.0 0.0
								}
							}
						}
					}
				}
				JOINT Shoulder_R
				{
					OFFSET 12.9945 -0.242716 -4.98039
					CHANNELS 6 Xposition Yposition Zposition Zrotation Xrotation Yrotation 
					JOINT UpperArm_R
					{
						OFFSET -5.34813 0.0 0.0
						CHANNELS 6 Xposition Yposition Zposition Zrotation Xrotation Yrotation 
						JOINT LowerArm_R
						{
							OFFSET -24.3289 0.000322201 0.0
							CHANNELS 6 Xposition Yposition Zposition Zrotation Xrotation Yrotation 
							JOINT Hand_R
							{
								OFFSET -22.2915 -0.000108084 0.0
								CHANNELS 6 Xposition Yposition Zposition Zrotation Xrotation Yrotation 
								End Site
								{
									OFFSET 0.0 0.0 0.0
								}
							}
						}
					}
				}
			}
		}
		JOINT UpperLeg_L
		{
			OFFSET -2.19248 -6.46944 0.0
			CHANNELS 6 Xposition Yposition Zposition Zrotation Xrotation Yrotation 
			JOINT LowerLeg_L
			{
				OFFSET 39.0811 0.0 -1.23785e-05
				CHANNELS 6 Xposition Yposition Zposition Zrotation Xrotation Yrotation 
				JOINT Foot_L
				{
					OFFSET 40.9854 0.0 -1.26872e-05
					CHANNELS 6 Xposition Yposition Zposition Zrotation Xrotation Yrotation 
					JOINT Toes_L
					{
						OFFSET 11.7543 0.0 0.0
						CHANNELS 6 Xposition Yposition Zposition Zrotation Xrotation Yrotation 
						End Site
						{
							OFFSET 0.0 0.0 0.0
						}
					}
				}
			}
		}
		JOINT UpperLeg_R
		{
			OFFSET -2.19251 6.46944 0.0
			CHANNELS 6 Xposition Yposition Zposition Zrotation Xrotation Yrotation 
			JOINT LowerLeg_R
			{
				OFFSET -39.0811 -0.00228153 -0.0401928
				CHANNELS 6 Xposition Yposition Zposition Zrotation Xrotation Yrotation 
				JOINT Foot_R
				{
					OFFSET -40.9854 0.0 0.0
					CHANNELS 6 Xposition Yposition Zposition Zrotation Xrotation Yrotation 
					JOINT Toes_R
					{
						OFFSET -11.7543 0.0 0.0
						CHANNELS 6 Xposition Yposition Zposition Zrotation Xrotation Yrotation 
						End Site
						{
							OFFSET 0.0 0.0 0.0
						}
					}
				}
			}
		}
	}
}
MOTION
Frames:	4
Frame Time:	0.0333333
0.000000 0.000000 0.000000 0.000000 0.000000 -0.000000 -1.778550 90.190100 -5.249590 89.782100 -0.643838 13.093500 15.735700 0.000005 -0.000001 89.281900 76.403700 -88.854100 8.984550 -0.406207 -0.000000 19.425900 -0.290253 0.907693 16.377300 -0.000001 -0.000001 6.570350 -4.735930 0.788503 6.456720 -0.000001 -0.000000 -10.008400 -4.945690 1.411880 12.994200 -0.242716 4.980390 -90.209100 0.708270 -73.550900 5.348090 -0.000007 -0.000001 -42.842600 -16.254600 -71.481400 24.328600 0.000019 0.000005 39.715900 -5.123730 -96.136300 22.291600 -0.000001 0.000005 25.565100 5.020490 6.880180 12.994500 -0.242716 -4.980390 89.182600 9.582180 -85.101100 -5.348130 -0.000001 -0.000004 -54.491800 35.154100 -26.611100 -24.328900 0.000322 -0.000009 1.751200 4.553700 -21.072900 -22.291500 -0.000108 -0.000004 15.668600 5.391680 -2.668940 -2.192480 -6.469440 -0.000000 -174.175000 -10.751200 -2.870790 39.081100 -0.000007 -0.000012 -0.185387 0.266657 34.808300 40.985400 -0.000006 -0.000013 0.070660 6.623400 -68.639100 11.754300 -0.000000 0.000003 -0.000075 -0.000802 -16.608500 -2.192510 6.469440 -0.000001 174.587000 20.912100 178.797000 -39.081100 -0.002282 -0.040193 -0.187775 0.274974 34.793900 -40.985400 0.000008 0.000006 4.673300 10.587500 -70.368500 -11.754300 -0.000006 -0.000006 -0.003214 -0.043004 -18.322100
0.000000 0.000000 0.000000 0.000000 0.000000 -0.000000 -1.753030 90.192500 -5.286650 89.756600 -0.819675 13.074000 15.735700 0.000005 -0.000001 89.230700 76.380800 -88.791100 8.984550 -0.406207 -0.000000 19.471600 -0.313259 0.935434 16.377300 -0.000001 -0.000001 6.458860 -4.696690 0.685519 6.456720 -0.000001 -0.000000 -10.060200 -4.969620 1.402180 12.994200 -0.242716 4.980390 -90.214800 0.727317 -73.549200 5.348090 -0.000007 -0.000001 -40.649400 -15.637600 -71.607900 24.328600 0.000019 0.000005 40.096600 -5.673000 -96.696100 22.291600 -0.000001 0.000005 24.977300 5.038880 6.480920 12.994500 -0.242716 -4.980390 89.183800 9.582160 -85.108200 -5.348130 -0.000001 -0.000004 -54.598700 35.145700 -26.396400 -24.328900 0.000322 -0.000009 1.776700 4.657140 -20.920400 -22.291500 -0.000108 -0.000004 15.646500 5.393170 -2.716740 -2.192480 -6.469440 -0.000000 -174.135000 -10.884900 -2.899210 39.081100 -0.000007 -0.000012 -0.186855 0.268672 34.818100 40.985400 -0.000006 -0.000013 0.078688 6.600800 -68.628200 11.754300 -0.000000 0.000003 -0.000079 -0.000836 -16.609800 -2.192510 6.469440 -0.000001 174.649000 20.863400 178.715000 -39.081100 -0.002282 -0.040193 -0.181892 0.266425 34.802100 -40.985400 0.000008 0.000006 4.822490 10.650500 -70.356500 -11.754300 -0.000006 -0.000006 -0.003317 -0.044141 -18.368400
0.000000 0.000000 0.000000 0.000000 0.000000 -0.000000 -1.735760 90.195100 -5.314730 89.750600 -1.000860 13.036400 15.735700 0.000005 -0.000001 89.167700 76.359900 -88.728500 8.984550 -0.406207 -0.000000 19.513000 -0.342994 0.939940 16.377300 -0.000001 -0.000001 6.324890 -4.707640 0.673681 6.456720 -0.000001 -0.000000 -10.076100 -4.956200 1.357610 12.994200 -0.242716 4.980390 -90.221400 0.748205 -73.512900 5.348090 -0.000007 -0.000001 -39.224200 -15.173100 -71.709800 24.328600 0.000019 0.000005 40.337400 -6.093780 -97.125600 22.291600 -0.000001 0.000005 24.753200 5.047960 6.282010 12.994500 -0.242716 -4.980390 89.184200 9.605450 -85.122200 -5.348130 -0.000001 -0.000004 -54.663200 35.109100 -26.218600 -24.328900 0.000322 -0.000009 1.764420 4.670390 -20.734400 -22.291500 -0.000108 -0.000004 15.556300 5.393570 -2.729570 -2.192480 -6.469440 -0.000000 -174.131000 -10.984400 -2.924490 39.081100 -0.000007 -0.000012 -0.184704 0.265602 34.815700 40.985400 -0.000006 -0.000013 0.070133 6.519570 -68.627600 11.754300 -0.000000 0.000003 -0.000082 -0.000871 -16.611100 -2.192510 6.469440 -0.000001 174.682000 20.738000 178.635000 -39.081100 -0.002282 -0.040193 -0.187824 0.275170 34.781400 -40.985400 0.000008 0.000006 4.721740 10.748800 -70.286300 -11.754300 -0.000006 -0.000006 -0.003515 -0.046298 -18.456200
0.000000 0.000000 0.000000 0.000000 0.000000 -0.000000 -1.724090 90.200700 -5.333250 89.752600 -1.174400 13.021600 15.735700 0.000005 -0.000001 89.129800 76.338200 -88.689800 8.984550 -0.406207 -0.000000 19.556300 -0.361056 0.944566 16.377300 -0.000001 -0.000001 6.238680 -4.711790 0.629618 6.456720 -0.000001 -0.000000 -10.072200 -4.998160 1.403020 12.994200 -0.242716 4.980390 -90.235300 0.796535 -73.543900 5.348090 -0.000007 -0.000001 -38.609200 -14.924800 -71.670300 24.328600 0.000019 0.000005 40.263100 -6.389860 -97.486000 22.291600 -0.000001 0.000005 24.457100 5.057200 6.077910 12.994500 -0.242716 -4.980390 89.178400 9.650400 -85.110700 -5.348130 -0.000001 -0.000004 -54.697000 35.084800 -26.022400 -24.328900 0.000322 -0.000009 1.775280 4.734520 -20.592900 -22.291500 -0.000108 -0.000004 15.613000 5.390330 -2.625720 -2.192480 -6.469440 -0.000000 -174.104000 -11.109400 -2.915750 39.081100 -0.000007 -0.000012 -0.188292 0.271036 34.788500 40.985400 -0.000006 -0.000013 0.059692 6.486750 -68.609700 11.754300 -0.000000 0.000003 -0.000083 -0.000881 -16.611500 -2.192510 6.469440 -0.000001 174.708000 20.654100 178.595000 -39.081100 -0.002282 -0.040193 -0.187149 0.274465 34.755400 -40.985400 0.000008 0.000006 4.693600 10.840000 -70.240100 -11.754300 -0.000006 -0.000006 -0.003325 -0.044228 -18.371900
